<?xml version="1.0" encoding="UTF-8"?>
<svg width="22px" height="22px" viewBox="0 0 22 22" version="1.1" xmlns="http://www.w3.org/2000/svg" xmlns:xlink="http://www.w3.org/1999/xlink">
    <!-- Generator: Sketch 62 (91390) - https://sketch.com -->
    <title>CT</title>
    <desc>Created with Sketch.</desc>
    <g id="Symbols" stroke="none" stroke-width="1" fill="none" fill-rule="evenodd" fill-opacity="0.8" opacity="0.9">
        <g id="icon/modality/ct" fill="#D6D6D6">
            <g id="diagnostics-dls-ct-scanner-blue">
                <path d="M11.0000126,19.75 C6.17551263,19.75 2.25001263,15.8245 2.25001263,11 C2.25001263,6.1755 6.17551263,2.25 11.0000126,2.25 C15.8245126,2.25 19.7500126,6.1755 19.7500126,11 C19.7500126,15.8245 15.8245126,19.75 11.0000126,19.75 M11.0000063,0 C4.92501263,0 6.3007417e-06,4.925 6.3007417e-06,11 C-0.00300121749,13.8065098 1.07077301,16.5072309 3.0000063,18.5455 L3.0000063,22 L19.0000063,22 L19.0000063,18.5455 C20.8585126,16.5755 22.0000063,13.922 22.0000063,11 C22.0000063,4.925 17.0750126,0 11.0000063,0 M11.0000126,14 C10.3748665,14.0004125 9.76543234,13.8041481 9.25801263,13.439 L6.02951263,16.264 C7.32901263,17.4915 9.07551263,18.25 11.0000126,18.25 C12.9245126,18.25 14.6710126,17.4915 15.9705126,16.2635 L12.7425126,13.439 C12.2347692,13.8038813 11.6252659,14.0001116 11.0000126,14 M11.0000126,3.75 C7.00251263,3.75 3.75001263,7.0025 3.75001263,11 C3.75001263,12.7135 4.35101263,14.288 5.34851263,15.53 L8.55051263,12.7285 C8.19208254,12.2234231 7.99968969,11.619334 8.00001263,11 C8.00001263,9.34314575 9.34315838,8 11.0000126,8 C12.6568669,8 14.0000126,9.34314575 14.0000126,11 C14.0004548,11.6194297 13.8078605,12.2236025 13.4490126,12.7285 L16.6510126,15.5305 C17.6861429,14.2474692 18.2504732,12.6485335 18.2500126,11 C18.2500126,7.0025 14.9975126,3.75 11.0000126,3.75" id="Shape"></path>
            </g>
        </g>
    </g>
</svg>