<?xml version="1.0" encoding="UTF-8"?>
<svg width="22px" height="22px" viewBox="0 0 22 22" version="1.1" xmlns="http://www.w3.org/2000/svg" xmlns:xlink="http://www.w3.org/1999/xlink">
    <!-- Generator: Sketch 62 (91390) - https://sketch.com -->
    <title>MR</title>
    <desc>Created with Sketch.</desc>
    <g id="Symbols" stroke="none" stroke-width="1" fill="none" fill-rule="evenodd" fill-opacity="0.8">
        <g id="icon/modality/mr" fill="#D6D6D6">
            <g id="Group-5">
                <g id="diagnostics-dls-mr">
                    <path d="M3,18.55 C1.14,16.58 0,13.923 0,11 C0,4.925 4.925,0 11,0 C17.075,0 22,4.925 22,11 C22,13.923 20.86,16.58 19,18.55 L19,22 L3,22 L3,18.55 Z M11,15 C13.209139,15 15,13.209139 15,11 C15,8.790861 13.209139,7 11,7 C8.790861,7 7,8.790861 7,11 C7,13.209139 8.790861,15 11,15 Z" id="Shape"></path>
                </g>
            </g>
        </g>
    </g>
</svg>